<svg width="785" height="734" viewBox="0 0 785 734" fill="none" xmlns="http://www.w3.org/2000/svg">
<g id="budget 1" clip-path="url(#clip0)">
<path id="Vector" d="M624.745 521.218C624.745 521.218 721.785 526.235 699.182 556.783C676.58 587.331 617.188 538.863 617.188 538.863L624.745 521.218Z" fill="#FFB8B8"/>
<path id="Vector_2" d="M445.916 230.251L465.668 235.189C465.668 235.189 477.19 269.756 485.42 301.03C493.65 332.304 510.11 426.126 510.11 426.126L637.72 515.559L622.5 549.607L452.5 482.607L414.641 333.95L445.916 230.251Z" fill="#575A89"/>
<path id="Vector_3" opacity="0.2" d="M464.5 291.607L457.138 445.772L472.5 491.607L427.5 458.607L464.5 291.607Z" fill="black"/>
<path id="Vector_4" d="M491.181 565.214C491.181 565.214 512.579 622.824 515.871 662.328C519.163 701.832 522.455 733.107 522.455 733.107H422.048L402.296 703.478V733.107H285.43C285.43 733.107 252.51 626.116 265.678 612.948C278.846 599.78 403.942 543.816 403.942 543.816L491.181 565.214Z" fill="#2F2E41"/>
<path id="Vector_5" d="M682.5 731.607H101.5V733.607H682.5V731.607Z" fill="#3F3D56"/>
<path id="Vector_6" d="M365.261 167.703C399.806 167.703 427.81 139.699 427.81 105.155C427.81 70.6104 399.806 42.6066 365.261 42.6066C330.717 42.6066 302.713 70.6104 302.713 105.155C302.713 139.699 330.717 167.703 365.261 167.703Z" fill="#FFB8B8"/>
<path id="Vector_7" d="M317.527 131.491L312.589 203.915L375.137 287.862L406.411 208.853C406.411 208.853 378.429 190.747 394.889 152.889L317.527 131.491Z" fill="#FFB8B8"/>
<path id="Vector_8" d="M500.23 579.203C500.23 594.023 459.08 617.063 459.08 617.063V625.293L442.62 633.523L406.41 561.103L396.54 640.103C396.54 640.103 324.11 651.633 301.07 640.103C278.02 628.583 266.5 633.523 233.58 622.003C200.66 610.483 246.75 455.753 246.75 455.753L213.83 217.083L285.75 181.123L289.54 179.223L299.43 177.403L314.59 174.603L365.26 208.853L369.34 230.253L371.85 243.423L385.01 228.603L394.95 195.913L465.67 235.193L445.92 393.203C445.92 393.203 500.23 564.393 500.23 579.203Z" fill="#575A89"/>
<path id="Vector_9" d="M258.271 630.231C258.271 630.231 333.987 691.133 297.775 702.655C261.563 714.178 241.811 640.107 241.811 640.107L258.271 630.231Z" fill="#FFB8B8"/>
<path id="Vector_10" d="M230.289 220.375L213.829 217.083C213.829 217.083 189.138 230.251 187.492 256.588C185.846 282.924 164.448 467.276 164.448 467.276L233.581 653.275L289.545 631.877L235.227 457.4L276.377 305.968L230.289 220.375Z" fill="#575A89"/>
<path id="Vector_11" d="M372.5 270.607C375.814 270.607 378.5 267.92 378.5 264.607C378.5 261.293 375.814 258.607 372.5 258.607C369.186 258.607 366.5 261.293 366.5 264.607C366.5 267.92 369.186 270.607 372.5 270.607Z" fill="#2F2E41"/>
<path id="Vector_12" d="M372.5 309.607C375.814 309.607 378.5 306.92 378.5 303.607C378.5 300.293 375.814 297.607 372.5 297.607C369.186 297.607 366.5 300.293 366.5 303.607C366.5 306.92 369.186 309.607 372.5 309.607Z" fill="#2F2E41"/>
<path id="Vector_13" d="M406.5 566.607C409.814 566.607 412.5 563.92 412.5 560.607C412.5 557.293 409.814 554.607 406.5 554.607C403.186 554.607 400.5 557.293 400.5 560.607C400.5 563.92 403.186 566.607 406.5 566.607Z" fill="#2F2E41"/>
<path id="Vector_14" d="M312.452 41.077L300.89 36.4481C300.89 36.4481 325.066 9.83178 358.702 12.1463L349.242 1.73117C349.242 1.73117 372.367 -7.52658 393.389 16.7752C404.44 29.55 417.227 44.5663 425.197 61.4818H437.58L432.412 72.8612L450.5 84.2406L431.934 82.1966C433.041 88.4281 433.21 94.7898 432.438 101.071C431.642 107.355 428.435 113.083 423.495 117.047V117.047C423.495 117.047 409.156 87.3661 409.156 82.7371V94.3094C409.156 94.3094 397.593 83.8944 397.593 76.9511L391.287 85.0517H349.242L355.548 74.6367L331.373 78.1083L340.833 65.3787L303.402 117.944C303.402 117.944 281.97 58.4354 312.452 41.077Z" fill="#2F2E41"/>
<g id="Coin">
<path id="Vector_15" opacity="0.1" d="M684.398 469.545C731.894 469.545 770.398 431.042 770.398 383.545C770.398 336.049 731.894 297.545 684.398 297.545C636.901 297.545 598.398 336.049 598.398 383.545C598.398 431.042 636.901 469.545 684.398 469.545Z" fill="black"/>
<path id="Vector_16" d="M684.398 483.545C739.626 483.545 784.398 438.774 784.398 383.545C784.398 328.317 739.626 283.545 684.398 283.545C629.169 283.545 584.398 328.317 584.398 383.545C584.398 438.774 629.169 483.545 684.398 483.545Z" fill="#3F3D56"/>
<path id="Vector_17" d="M680.277 434.293V421.776C673.949 421.652 667.404 419.421 663.586 416.323L666.204 408.02C670.741 411.42 676.243 413.286 681.913 413.348C689.659 413.348 694.895 408.267 694.895 401.203C694.895 394.387 690.64 390.173 682.568 386.455C671.44 381.498 664.567 375.797 664.567 365.015C664.567 354.729 671.004 346.921 681.041 345.062V332.545H687.804V344.567C692.848 344.635 697.767 346.14 701.986 348.904L699.259 357.084C695.212 354.314 690.417 352.844 685.513 352.87C677.113 352.87 673.949 358.57 673.949 363.528C673.949 369.972 677.986 373.194 687.477 377.656C698.713 382.861 704.387 389.306 704.387 400.335C704.387 410.126 698.386 419.297 687.15 421.403V434.293H680.277Z" fill="#DB7093"/>
</g>
<path id="Vector_18" opacity="0.2" d="M250.005 504.87L290 629.803L258 499.803L250.005 504.87Z" fill="black"/>
<g id="chart">
<path id="Vector_19" d="M46.0933 260.803H20.7065C19.6001 260.802 18.5393 260.362 17.7569 259.58C16.9745 258.797 16.5344 257.736 16.5332 256.63V220.137C16.5344 219.03 16.9745 217.97 17.7569 217.187C18.5393 216.405 19.6001 215.965 20.7065 215.963H46.0933C47.1997 215.965 48.2605 216.405 49.0429 217.187C49.8253 217.97 50.2654 219.03 50.2666 220.137V256.63C50.2654 257.736 49.8253 258.797 49.0429 259.58C48.2605 260.362 47.1997 260.802 46.0933 260.803V260.803ZM20.7065 217.963C20.1304 217.964 19.578 218.193 19.1705 218.601C18.7631 219.008 18.5339 219.561 18.5332 220.137V256.63C18.5339 257.206 18.7631 257.759 19.1705 258.166C19.578 258.573 20.1304 258.803 20.7065 258.803H46.0933C46.6695 258.803 47.2218 258.573 47.6293 258.166C48.0367 257.759 48.2659 257.206 48.2666 256.63V220.137C48.2659 219.561 48.0367 219.008 47.6293 218.601C47.2218 218.193 46.6695 217.964 46.0933 217.963H20.7065Z" fill="#3F3D56"/>
<path id="Vector_20" d="M92.4629 260.803H69.5371C68.1044 260.802 66.7309 260.232 65.7179 259.219C64.7048 258.206 64.135 256.832 64.1333 255.4V181.7C64.135 180.268 64.7048 178.894 65.7179 177.881C66.7309 176.868 68.1044 176.298 69.5371 176.297H92.4629C93.8956 176.298 95.2691 176.868 96.2821 177.881C97.2952 178.894 97.865 180.268 97.8667 181.7V255.4C97.865 256.832 97.2952 258.206 96.2821 259.219C95.2691 260.232 93.8955 260.802 92.4629 260.803V260.803ZM69.5371 178.296C68.6347 178.297 67.7695 178.656 67.1313 179.295C66.4932 179.933 66.1343 180.798 66.1333 181.7V255.4C66.1343 256.302 66.4932 257.167 67.1313 257.805C67.7695 258.443 68.6347 258.802 69.5371 258.803H92.4629C93.3653 258.802 94.2305 258.443 94.8687 257.805C95.5068 257.167 95.8657 256.302 95.8667 255.4V181.7C95.8657 180.798 95.5068 179.933 94.8687 179.295C94.2305 178.656 93.3653 178.298 92.4629 178.297L69.5371 178.296Z" fill="#3F3D56"/>
<path id="Vector_21" d="M139.178 260.803H118.022C116.355 260.801 114.757 260.138 113.578 258.959C112.398 257.78 111.735 256.182 111.733 254.514V146.092C111.735 144.425 112.398 142.826 113.578 141.647C114.757 140.468 116.355 139.805 118.022 139.803H139.178C140.845 139.805 142.444 140.468 143.623 141.647C144.802 142.826 145.465 144.425 145.467 146.092V254.514C145.465 256.182 144.802 257.78 143.623 258.959C142.444 260.138 140.845 260.801 139.178 260.803V260.803ZM118.022 141.803C116.885 141.805 115.795 142.257 114.991 143.061C114.187 143.865 113.735 144.955 113.733 146.092V254.514C113.735 255.651 114.187 256.742 114.991 257.546C115.795 258.35 116.885 258.802 118.022 258.803H139.178C140.315 258.802 141.405 258.35 142.209 257.546C143.013 256.742 143.466 255.651 143.467 254.514V146.092C143.466 144.955 143.013 143.865 142.209 143.061C141.405 142.257 140.315 141.805 139.178 141.803H118.022Z" fill="#3F3D56"/>
<path id="Vector_22" d="M90.52 183.643H71.48V253.853H90.52V183.643Z" fill="#DB7093"/>
<path id="Vector_23" d="M138.12 147.15H119.08V253.853H138.12V147.15Z" fill="#DB7093"/>
<path id="Vector_24" d="M159 274.803H1C0.868669 274.803 0.73862 274.777 0.617279 274.727C0.495938 274.677 0.385682 274.603 0.292816 274.51C0.199951 274.418 0.126292 274.307 0.0760498 274.186C0.0258072 274.065 -3.41257e-05 273.935 3.38221e-08 273.803V116.803C3.38221e-08 116.538 0.105356 116.284 0.292892 116.096C0.480429 115.909 0.734784 115.803 1 115.803C1.26522 115.803 1.51957 115.909 1.70711 116.096C1.89464 116.284 2 116.538 2 116.803V272.803H159C159.265 272.803 159.52 272.909 159.707 273.096C159.895 273.284 160 273.538 160 273.803C160 274.069 159.895 274.323 159.707 274.51C159.52 274.698 159.265 274.803 159 274.803Z" fill="#3F3D56"/>
<path id="Vector_25" d="M42.92 222.913H23.88V253.853H42.92V222.913Z" fill="#DB7093"/>
</g>
<g id="chart2">
<path id="Vector_26" d="M723 145.803H590C589.869 145.803 589.739 145.778 589.617 145.727C589.496 145.677 589.386 145.603 589.293 145.51C589.2 145.418 589.126 145.307 589.076 145.186C589.026 145.065 589 144.935 589 144.803V9.80331C589 9.5381 589.105 9.28374 589.293 9.09621C589.48 8.90867 589.735 8.80331 590 8.80331C590.265 8.80331 590.52 8.90867 590.707 9.09621C590.895 9.28374 591 9.5381 591 9.80331V143.803H723C723.265 143.803 723.52 143.909 723.707 144.096C723.895 144.284 724 144.538 724 144.803C724 145.069 723.895 145.323 723.707 145.51C723.52 145.698 723.265 145.803 723 145.803Z" fill="#3F3D56"/>
<path id="Vector_27" d="M635.898 133.271H610.512C609.405 133.269 608.344 132.829 607.562 132.047C606.779 131.265 606.339 130.204 606.338 129.097V92.6041C606.339 91.4975 606.779 90.4367 607.562 89.6543C608.344 88.8719 609.405 88.4318 610.512 88.4307H635.898C637.005 88.4321 638.065 88.8722 638.848 89.6546C639.63 90.4369 640.07 91.4977 640.071 92.6041V129.097C640.07 130.204 639.63 131.264 638.848 132.047C638.065 132.829 637.005 133.269 635.898 133.271ZM610.512 90.4307C609.935 90.4314 609.383 90.6606 608.975 91.068C608.568 91.4754 608.339 92.0278 608.338 92.6041V129.097C608.339 129.674 608.568 130.226 608.975 130.633C609.383 131.041 609.935 131.27 610.512 131.271H635.898C636.475 131.27 637.027 131.041 637.434 130.633C637.842 130.226 638.071 129.673 638.071 129.097V92.6041C638.071 92.0279 637.842 91.4755 637.434 91.0681C637.027 90.6607 636.475 90.4314 635.898 90.4307H610.512Z" fill="#3F3D56"/>
<path id="Vector_28" d="M687.888 133.271H664.521C663.147 133.269 661.83 132.722 660.858 131.75C659.886 130.779 659.339 129.461 659.338 128.086V61.9869C659.339 60.6126 659.886 59.295 660.858 58.3232C661.83 57.3514 663.147 56.8048 664.521 56.8033H687.888C689.262 56.8048 690.58 57.3514 691.551 58.3232C692.523 59.295 693.07 60.6126 693.071 61.9869V128.086C693.07 129.461 692.523 130.779 691.551 131.75C690.58 132.722 689.262 133.269 687.888 133.271V133.271ZM664.521 58.8033C663.677 58.8042 662.868 59.1399 662.271 59.7367C661.674 60.3336 661.339 61.1428 661.338 61.9869V128.086C661.339 128.931 661.674 129.74 662.271 130.337C662.868 130.934 663.677 131.27 664.521 131.271H687.888C688.732 131.27 689.541 130.934 690.138 130.337C690.735 129.74 691.07 128.931 691.071 128.086V61.9869C691.07 61.1428 690.735 60.3336 690.138 59.7367C689.541 59.1399 688.732 58.8042 687.888 58.8033H664.521Z" fill="#3F3D56"/>
<path id="Vector_29" d="M632.268 95.727H613.228V126.667H632.268V95.727Z" fill="#DB7093"/>
<path id="Vector_30" d="M685.725 65.1051H666.685V124.969H685.725V65.1051Z" fill="#DB7093"/>
<path id="Vector_31" d="M623 77.8033C627.971 77.8033 632 73.7738 632 68.8033C632 63.8327 627.971 59.8033 623 59.8033C618.029 59.8033 614 63.8327 614 68.8033C614 73.7738 618.029 77.8033 623 77.8033Z" fill="#DB7093"/>
<path id="Vector_32" d="M676 43.8033C680.971 43.8033 685 39.7739 685 34.8033C685 29.8327 680.971 25.8033 676 25.8033C671.029 25.8033 667 29.8327 667 34.8033C667 39.7739 671.029 43.8033 676 43.8033Z" fill="#DB7093"/>
</g>
</g>
<defs>
<clipPath id="clip0">
<rect width="784.398" height="733.607" fill="white"/>
</clipPath>
</defs>
</svg>
